<?xml version="1.0" encoding="UTF-8"?>
<svg version="1.1" xmlns="http://www.w3.org/2000/svg" width="256" height="256">
<path d="M0 0 C7.51564125 3.39993295 11.70522443 16.96118738 15.3671875 24.23046875 C15.72792484 24.94504053 16.08866219 25.65961231 16.46033096 26.39583778 C18.36347414 30.16650699 20.26182465 33.93954345 22.15625 37.71459961 C24.11120404 41.60785457 26.0828119 45.49242645 28.05819511 49.37534618 C29.57907537 52.37239726 31.08749105 55.37559379 32.59256363 58.38060951 C33.31434269 59.81627444 34.04082074 61.24958705 34.77209091 62.6804409 C35.79087913 64.67667993 36.7916819 66.68098989 37.78857422 68.68823242 C38.64864578 70.39410774 38.64864578 70.39410774 39.52609253 72.13444519 C40.71614603 75.44072771 40.80801649 76.91572074 39.625 80.1875 C38.965 80.8475 38.305 81.5075 37.625 82.1875 C32.1665443 82.1875 28.38508757 79.37291622 23.9921875 76.46484375 C21.48660423 74.87091397 21.48660423 74.87091397 17.625 75.1875 C17.55557909 88.82595493 17.50222894 102.46436802 17.46956348 116.10296345 C17.45388803 122.43548625 17.43261532 128.76788843 17.39868164 135.1003418 C17.36615545 141.20815916 17.34816116 147.31586029 17.34036827 153.42375755 C17.33481265 155.7574363 17.32396431 158.09110848 17.30780983 160.42473793 C17.28612543 163.68605061 17.28302934 166.94687912 17.28442383 170.20825195 C17.273638 171.17929367 17.26285217 172.15033539 17.2517395 173.15080261 C17.25792549 174.48221786 17.25792549 174.48221786 17.26423645 175.8405304 C17.26147107 176.61207112 17.25870569 177.38361185 17.25585651 178.1785326 C17.72435029 180.72818814 18.6190048 181.59638748 20.625 183.1875 C27.74535262 185.69211675 35.54859145 185.52277325 43 185.5 C44.57007813 185.52416992 44.57007813 185.52416992 46.171875 185.54882812 C61.24707026 185.5581338 74.29629822 181.17682088 85.35546875 170.796875 C94.5197408 160.26032813 95.31151674 148.88404779 94.81298828 135.63671875 C94.34871295 129.58787446 92.4775791 123.9399151 90.625 118.1875 C89.88746892 115.66910118 89.1580672 113.1483049 88.4375 110.625 C88.11394531 109.53058594 87.79039062 108.43617187 87.45703125 107.30859375 C80.89017034 82.67515774 87.52007661 56.04501349 99.69140625 34.3046875 C108.09495917 20.75714158 108.09495917 20.75714158 113.625 16.1875 C116.96692692 16.43203124 118.23043557 16.79293557 120.625 19.1875 C120.88569641 22.14122009 120.88569641 22.14122009 120.8996582 25.97631836 C120.90476913 26.67404861 120.90988007 27.37177887 120.91514587 28.09065247 C120.92907492 30.40296954 120.92808263 32.71498965 120.92578125 35.02734375 C120.92966648 36.63155733 120.93400079 38.23576988 120.93876648 39.83998108 C120.94623589 43.20512219 120.94593232 46.57015841 120.94067383 49.93530273 C120.93487934 54.25097766 120.95180591 58.56622341 120.9750185 62.88182735 C120.98974004 66.19579078 120.9906297 69.50965049 120.98750877 72.82364082 C120.98802282 74.4148805 120.99327621 76.00612585 121.00332069 77.59733391 C121.01563713 79.82160308 121.00892305 82.04503171 120.99731445 84.26928711 C120.99794388 85.53566513 120.9985733 86.80204315 120.9992218 88.10679626 C120.625 91.1875 120.625 91.1875 119.2462616 93.10816956 C117.625 94.1875 117.625 94.1875 115.3125 94.375 C111.10815302 92.51726529 109.11376652 88.94203094 106.625 85.1875 C105.305 85.5175 103.985 85.8475 102.625 86.1875 C103.77176276 99.36671379 106.82623158 110.55524557 112.68310547 122.50683594 C120.83615605 139.17114892 123.50387185 156.19530751 117.625 174.1875 C111.8675197 188.12321936 100.4075302 196.49844009 86.90234375 202.25390625 C79.71314964 205.20616262 72.42770536 207.89759753 65.13232422 210.57348633 C51.41188102 215.62478547 34.55591573 222.08457441 27.6640625 236.1484375 C26.97345807 237.82366606 26.29795798 239.50510505 25.625 241.1875 C23.22960279 242.3851986 21.71393873 242.32687179 19.03930664 242.34863281 C18.08814468 242.35824036 17.13698273 242.3678479 16.15699768 242.37774658 C15.12679001 242.38199646 14.09658234 242.38624634 13.03515625 242.390625 C11.97969101 242.39632507 10.92422577 242.40202515 9.83677673 242.40789795 C7.60156255 242.41735489 5.36633439 242.42388468 3.13110352 242.42773438 C-0.29500502 242.43745039 -3.72051647 242.46847193 -7.14648438 242.5 C-9.31510059 242.50652881 -11.48372111 242.51177976 -13.65234375 242.515625 C-14.68052719 242.5279718 -15.70871063 242.5403186 -16.76805115 242.55303955 C-17.72236526 242.55003845 -18.67667938 242.54703735 -19.65991211 242.54394531 C-20.91994301 242.54941376 -20.91994301 242.54941376 -22.20542908 242.55499268 C-24.87327046 242.10310048 -25.71398802 241.27722926 -27.375 239.1875 C-28.3671875 237.3203125 -28.3671875 237.3203125 -29.25 235.3125 C-31.11106091 231.48582419 -33.12204655 229.00672632 -36.375 226.1875 C-36.931875 225.66671875 -37.48875 225.1459375 -38.0625 224.609375 C-48.43086408 215.61805927 -62.27077773 211.48046122 -75.0625 207.1875 C-91.55787182 201.61159967 -107.4021542 194.66846807 -116.1953125 178.671875 C-122.8908186 164.5714052 -123.41282954 147.95143747 -118.375 133.1875 C-116.23179779 128.01545272 -113.86288268 122.95297677 -111.39916992 117.92651367 C-107.25581691 109.40431754 -104.24840537 101.03539125 -103.6875 91.5 C-103.62175781 90.48550781 -103.55601563 89.47101563 -103.48828125 88.42578125 C-103.45089844 87.68714844 -103.41351563 86.94851562 -103.375 86.1875 C-104.695 85.8575 -106.015 85.5275 -107.375 85.1875 C-109.685 88.1575 -111.995 91.1275 -114.375 94.1875 C-119.375 93.1875 -119.375 93.1875 -121.375 91.1875 C-121.63569641 88.23377991 -121.63569641 88.23377991 -121.6496582 84.39868164 C-121.65476913 83.70095139 -121.65988007 83.00322113 -121.66514587 82.28434753 C-121.67907492 79.97203046 -121.67808263 77.66001035 -121.67578125 75.34765625 C-121.67966648 73.74344267 -121.68400079 72.13923012 -121.68876648 70.53501892 C-121.69623589 67.16987781 -121.69593232 63.80484159 -121.69067383 60.43969727 C-121.68487934 56.12402234 -121.70180591 51.80877659 -121.7250185 47.49317265 C-121.73974004 44.17920922 -121.7406297 40.86534951 -121.73750877 37.55135918 C-121.73802282 35.9601195 -121.74327621 34.36887415 -121.75332069 32.77766609 C-121.76563713 30.55339692 -121.75892305 28.32996829 -121.74731445 26.10571289 C-121.74794388 24.83933487 -121.7485733 23.57295685 -121.7492218 22.26820374 C-121.375 19.1875 -121.375 19.1875 -120.00675964 17.24827576 C-118.375 16.1875 -118.375 16.1875 -115.89453125 16.296875 C-106.51251164 19.61330984 -100.56842402 33.58325574 -96.453125 42.0546875 C-83.74580391 69.3630484 -83.34208745 97.54284502 -93.54296875 125.70703125 C-97.10123878 136.31501938 -97.15996242 150.64575184 -92.63671875 160.8984375 C-86.54520555 171.94991345 -77.70879526 179.17610824 -65.67504883 183.05859375 C-58.25665036 185.02579121 -51.40634515 185.61786246 -43.75 185.5 C-42.69554688 185.50322266 -41.64109375 185.50644531 -40.5546875 185.50976562 C-32.87481312 185.45748925 -25.67848654 184.62199551 -18.375 182.1875 C-18.375 146.8775 -18.375 111.5675 -18.375 75.1875 C-24.46759049 76.20293175 -27.02168313 77.65615795 -31.91015625 81.0078125 C-34.92591106 82.451169 -36.25526417 82.27125309 -39.375 81.1875 C-40.035 80.5275 -40.695 79.8675 -41.375 79.1875 C-41.06745118 74.33434873 -39.26423036 70.39853804 -37.09619141 66.12817383 C-36.75948929 65.44936661 -36.42278717 64.77055939 -36.07588196 64.07118225 C-34.96731682 61.84160415 -33.84730692 59.6180089 -32.7265625 57.39453125 C-31.94994396 55.84113913 -31.17385935 54.28747996 -30.39828491 52.73356628 C-28.77416965 49.48395362 -27.1445255 46.23719389 -25.51074219 42.99243164 C-23.41745688 38.8342822 -21.33671346 34.67000836 -19.25988197 30.5036211 C-17.6601536 27.29720946 -16.05454307 24.09377276 -14.44706345 20.89124107 C-13.67752273 19.35667326 -12.90965061 17.8212675 -12.14348221 16.2850132 C-11.0723746 14.13988685 -9.99358252 11.99880477 -8.91259766 9.85864258 C-8.59767868 9.22430298 -8.2827597 8.58996338 -7.95829773 7.93640137 C-4.08690678 0.32265054 -4.08690678 0.32265054 0 0 Z " fill="#FBC42E" transform="translate(128.375,6.8125)"/>
<path d="M0 0 C7.51564125 3.39993295 11.70522443 16.96118738 15.3671875 24.23046875 C15.72792484 24.94504053 16.08866219 25.65961231 16.46033096 26.39583778 C18.36347414 30.16650699 20.26182465 33.93954345 22.15625 37.71459961 C24.11120404 41.60785457 26.0828119 45.49242645 28.05819511 49.37534618 C29.57907537 52.37239726 31.08749105 55.37559379 32.59256363 58.38060951 C33.31434269 59.81627444 34.04082074 61.24958705 34.77209091 62.6804409 C35.79087913 64.67667993 36.7916819 66.68098989 37.78857422 68.68823242 C38.64864578 70.39410774 38.64864578 70.39410774 39.52609253 72.13444519 C40.71614603 75.44072771 40.80801649 76.91572074 39.625 80.1875 C38.965 80.8475 38.305 81.5075 37.625 82.1875 C32.1665443 82.1875 28.38508757 79.37291622 23.9921875 76.46484375 C21.48660423 74.87091397 21.48660423 74.87091397 17.625 75.1875 C17.55557909 88.82595493 17.50222894 102.46436802 17.46956348 116.10296345 C17.45388803 122.43548625 17.43261532 128.76788843 17.39868164 135.1003418 C17.36615545 141.20815916 17.34816116 147.31586029 17.34036827 153.42375755 C17.33481265 155.7574363 17.32396431 158.09110848 17.30780983 160.42473793 C17.28612543 163.68605061 17.28302934 166.94687912 17.28442383 170.20825195 C17.273638 171.17929367 17.26285217 172.15033539 17.2517395 173.15080261 C17.25792549 174.48221786 17.25792549 174.48221786 17.26423645 175.8405304 C17.26147107 176.61207112 17.25870569 177.38361185 17.25585651 178.1785326 C17.72435029 180.72818814 18.6190048 181.59638748 20.625 183.1875 C27.74535262 185.69211675 35.54859145 185.52277325 43 185.5 C44.57007813 185.52416992 44.57007813 185.52416992 46.171875 185.54882812 C61.24707026 185.5581338 74.29629822 181.17682088 85.35546875 170.796875 C94.5197408 160.26032813 95.31151674 148.88404779 94.81298828 135.63671875 C94.34871295 129.58787446 92.4775791 123.9399151 90.625 118.1875 C89.88746892 115.66910118 89.1580672 113.1483049 88.4375 110.625 C88.11394531 109.53058594 87.79039062 108.43617187 87.45703125 107.30859375 C80.89017034 82.67515774 87.52007661 56.04501349 99.69140625 34.3046875 C108.09495917 20.75714158 108.09495917 20.75714158 113.625 16.1875 C116.96692692 16.43203124 118.23043557 16.79293557 120.625 19.1875 C120.88569641 22.14122009 120.88569641 22.14122009 120.8996582 25.97631836 C120.90476913 26.67404861 120.90988007 27.37177887 120.91514587 28.09065247 C120.92907492 30.40296954 120.92808263 32.71498965 120.92578125 35.02734375 C120.92966648 36.63155733 120.93400079 38.23576988 120.93876648 39.83998108 C120.94623589 43.20512219 120.94593232 46.57015841 120.94067383 49.93530273 C120.93487934 54.25097766 120.95180591 58.56622341 120.9750185 62.88182735 C120.98974004 66.19579078 120.9906297 69.50965049 120.98750877 72.82364082 C120.98802282 74.4148805 120.99327621 76.00612585 121.00332069 77.59733391 C121.01563713 79.82160308 121.00892305 82.04503171 120.99731445 84.26928711 C120.99794388 85.53566513 120.9985733 86.80204315 120.9992218 88.10679626 C120.625 91.1875 120.625 91.1875 119.2462616 93.10816956 C117.625 94.1875 117.625 94.1875 115.3125 94.375 C111.10815302 92.51726529 109.11376652 88.94203094 106.625 85.1875 C105.305 85.5175 103.985 85.8475 102.625 86.1875 C103.77176276 99.36671379 106.82623158 110.55524557 112.68310547 122.50683594 C120.83615605 139.17114892 123.50387185 156.19530751 117.625 174.1875 C111.8675197 188.12321936 100.4075302 196.49844009 86.90234375 202.25390625 C79.71314964 205.20616262 72.42770536 207.89759753 65.13232422 210.57348633 C51.41188102 215.62478547 34.55591573 222.08457441 27.6640625 236.1484375 C26.97345807 237.82366606 26.29795798 239.50510505 25.625 241.1875 C23.22960279 242.3851986 21.71393873 242.32687179 19.03930664 242.34863281 C18.08814468 242.35824036 17.13698273 242.3678479 16.15699768 242.37774658 C15.12679001 242.38199646 14.09658234 242.38624634 13.03515625 242.390625 C11.97969101 242.39632507 10.92422577 242.40202515 9.83677673 242.40789795 C7.60156255 242.41735489 5.36633439 242.42388468 3.13110352 242.42773438 C-0.29500502 242.43745039 -3.72051647 242.46847193 -7.14648438 242.5 C-9.31510059 242.50652881 -11.48372111 242.51177976 -13.65234375 242.515625 C-14.68052719 242.5279718 -15.70871063 242.5403186 -16.76805115 242.55303955 C-17.72236526 242.55003845 -18.67667938 242.54703735 -19.65991211 242.54394531 C-20.91994301 242.54941376 -20.91994301 242.54941376 -22.20542908 242.55499268 C-24.87327046 242.10310048 -25.71398802 241.27722926 -27.375 239.1875 C-28.3671875 237.3203125 -28.3671875 237.3203125 -29.25 235.3125 C-31.11106091 231.48582419 -33.12204655 229.00672632 -36.375 226.1875 C-36.931875 225.66671875 -37.48875 225.1459375 -38.0625 224.609375 C-48.43086408 215.61805927 -62.27077773 211.48046122 -75.0625 207.1875 C-91.55787182 201.61159967 -107.4021542 194.66846807 -116.1953125 178.671875 C-122.8908186 164.5714052 -123.41282954 147.95143747 -118.375 133.1875 C-116.23179779 128.01545272 -113.86288268 122.95297677 -111.39916992 117.92651367 C-107.25581691 109.40431754 -104.24840537 101.03539125 -103.6875 91.5 C-103.62175781 90.48550781 -103.55601563 89.47101563 -103.48828125 88.42578125 C-103.45089844 87.68714844 -103.41351563 86.94851562 -103.375 86.1875 C-104.695 85.8575 -106.015 85.5275 -107.375 85.1875 C-109.685 88.1575 -111.995 91.1275 -114.375 94.1875 C-119.375 93.1875 -119.375 93.1875 -121.375 91.1875 C-121.63569641 88.23377991 -121.63569641 88.23377991 -121.6496582 84.39868164 C-121.65476913 83.70095139 -121.65988007 83.00322113 -121.66514587 82.28434753 C-121.67907492 79.97203046 -121.67808263 77.66001035 -121.67578125 75.34765625 C-121.67966648 73.74344267 -121.68400079 72.13923012 -121.68876648 70.53501892 C-121.69623589 67.16987781 -121.69593232 63.80484159 -121.69067383 60.43969727 C-121.68487934 56.12402234 -121.70180591 51.80877659 -121.7250185 47.49317265 C-121.73974004 44.17920922 -121.7406297 40.86534951 -121.73750877 37.55135918 C-121.73802282 35.9601195 -121.74327621 34.36887415 -121.75332069 32.77766609 C-121.76563713 30.55339692 -121.75892305 28.32996829 -121.74731445 26.10571289 C-121.74794388 24.83933487 -121.7485733 23.57295685 -121.7492218 22.26820374 C-121.375 19.1875 -121.375 19.1875 -120.00675964 17.24827576 C-118.375 16.1875 -118.375 16.1875 -115.89453125 16.296875 C-106.51251164 19.61330984 -100.56842402 33.58325574 -96.453125 42.0546875 C-83.74580391 69.3630484 -83.34208745 97.54284502 -93.54296875 125.70703125 C-97.10123878 136.31501938 -97.15996242 150.64575184 -92.63671875 160.8984375 C-86.54520555 171.94991345 -77.70879526 179.17610824 -65.67504883 183.05859375 C-58.25665036 185.02579121 -51.40634515 185.61786246 -43.75 185.5 C-42.69554688 185.50322266 -41.64109375 185.50644531 -40.5546875 185.50976562 C-32.87481312 185.45748925 -25.67848654 184.62199551 -18.375 182.1875 C-18.375 146.8775 -18.375 111.5675 -18.375 75.1875 C-24.46759049 76.20293175 -27.02168313 77.65615795 -31.91015625 81.0078125 C-34.92591106 82.451169 -36.25526417 82.27125309 -39.375 81.1875 C-40.035 80.5275 -40.695 79.8675 -41.375 79.1875 C-41.06745118 74.33434873 -39.26423036 70.39853804 -37.09619141 66.12817383 C-36.75948929 65.44936661 -36.42278717 64.77055939 -36.07588196 64.07118225 C-34.96731682 61.84160415 -33.84730692 59.6180089 -32.7265625 57.39453125 C-31.94994396 55.84113913 -31.17385935 54.28747996 -30.39828491 52.73356628 C-28.77416965 49.48395362 -27.1445255 46.23719389 -25.51074219 42.99243164 C-23.41745688 38.8342822 -21.33671346 34.67000836 -19.25988197 30.5036211 C-17.6601536 27.29720946 -16.05454307 24.09377276 -14.44706345 20.89124107 C-13.67752273 19.35667326 -12.90965061 17.8212675 -12.14348221 16.2850132 C-11.0723746 14.13988685 -9.99358252 11.99880477 -8.91259766 9.85864258 C-8.59767868 9.22430298 -8.2827597 8.58996338 -7.95829773 7.93640137 C-4.08690678 0.32265054 -4.08690678 0.32265054 0 0 Z M-1.375 10.1875 C-5.31315563 17.97128577 -9.24274643 25.75931642 -13.16135502 33.55296135 C-14.98103345 37.17140976 -16.80366968 40.78830441 -18.63305664 44.40185547 C-20.39714912 47.88670003 -22.1534823 51.37535207 -23.90441704 54.8668251 C-24.57507695 56.2007324 -25.24855982 57.53322411 -25.92485237 58.86428452 C-26.8688692 60.72344268 -27.80288197 62.58730149 -28.73461914 64.45263672 C-29.26978653 65.51408905 -29.80495392 66.57554138 -30.3563385 67.66915894 C-30.6924968 68.50021149 -31.02865509 69.33126404 -31.375 70.1875 C-31.045 70.8475 -30.715 71.5075 -30.375 72.1875 C-29.67375 71.713125 -28.9725 71.23875 -28.25 70.75 C-24.25252105 68.57745709 -21.16295527 67.77169645 -16.6875 68.8125 C-13.62074539 70.63597571 -12.8545719 71.90770756 -11.375 75.1875 C-10.93360117 78.62431456 -10.96525232 82.03690424 -10.98681641 85.49804688 C-10.98155945 86.53437759 -10.97630249 87.57070831 -10.97088623 88.63844299 C-10.95769154 92.06119902 -10.96642274 95.48348931 -10.9765625 98.90625 C-10.97454162 101.28609303 -10.97163007 103.66593546 -10.96786499 106.04577637 C-10.96344234 111.03236795 -10.96987097 116.01879826 -10.98388672 121.00537109 C-11.00097835 127.39794501 -10.99113688 133.79014106 -10.97316933 140.18270111 C-10.96233003 145.09660694 -10.96577856 150.01042314 -10.9735527 154.92433167 C-10.97555429 157.28145899 -10.97309689 159.63859445 -10.96611404 161.99571228 C-10.95849741 165.28967856 -10.97010745 168.58303246 -10.98681641 171.87695312 C-10.98074371 172.85165054 -10.97467102 173.82634796 -10.96841431 174.83058167 C-11.01470798 179.75553976 -11.1161984 183.21689112 -14.375 187.1875 C-18.47691745 190.43485131 -22.83625183 191.10257914 -27.875 191.875 C-28.67671631 192.0002002 -29.47843262 192.12540039 -30.30444336 192.25439453 C-49.23474164 195.03687013 -69.27988481 192.75424512 -84.98828125 181.1640625 C-94.23047251 173.51013652 -101.31874815 163.14582502 -102.61230469 150.95019531 C-103.33972157 137.86200098 -101.58357502 126.54540665 -97.375 114.1875 C-96.69842178 112.19083119 -96.03125363 110.19094095 -95.375 108.1875 C-95.01148437 107.19621094 -94.64796875 106.20492187 -94.2734375 105.18359375 C-88.34754199 83.94234353 -94.3389102 59.15881977 -104.375 40.1875 C-108.30818816 32.6312976 -108.30818816 32.6312976 -114.375 27.1875 C-114.375 45.0075 -114.375 62.8275 -114.375 81.1875 C-112.395 80.1975 -110.415 79.2075 -108.375 78.1875 C-104.51307752 78.25408487 -102.27162998 78.49901627 -99.1875 80.8671875 C-95.73370277 85.28864343 -96.99566861 90.84015101 -97.375 96.1875 C-97.43429688 97.06664063 -97.49359375 97.94578125 -97.5546875 98.8515625 C-98.65527011 107.52200601 -102.74588764 115.2323075 -106.39404297 123.06933594 C-113.20206608 137.76978605 -118.20352236 153.85391486 -112.41015625 169.88671875 C-105.32617306 185.63187384 -93.55460675 192.55543095 -77.91748047 198.50244141 C-72.75375169 200.4067109 -67.57771506 202.2736845 -62.37451172 204.06738281 C-47.07796331 209.44590474 -31.05533005 216.74163708 -22.375 231.1875 C-22.045 232.1775 -21.715 233.1675 -21.375 234.1875 C-14.2373496 235.58893725 -7.10876441 235.41583252 0.12890625 235.33007812 C1.79293898 235.31835958 3.45719408 235.32454663 5.12109375 235.34863281 C14.6418484 235.84124035 14.6418484 235.84124035 22.98266602 232.23144531 C24.50136503 229.93431649 25.54955929 227.71433744 26.625 225.1875 C36.87136863 211.83131888 54.61422414 206.64961596 69.75439453 201.2265625 C86.20355437 195.27252063 102.57158765 189.28030455 110.5 172.5 C115.66416232 160.6839862 115.22981608 145.14912284 110.625 133.1875 C108.61657469 128.71642785 106.50094589 124.2989736 104.29345703 119.92285156 C98.37366438 108.08326626 95.11059337 95.52870125 96.625 82.1875 C98.14385859 79.94264611 99.12196028 79.33633947 101.7109375 78.5703125 C102.46632812 78.48523438 103.22171875 78.40015625 104 78.3125 C104.75023437 78.21195312 105.50046875 78.11140625 106.2734375 78.0078125 C108.625 78.1875 108.625 78.1875 113.625 81.1875 C113.625 63.3675 113.625 45.5475 113.625 27.1875 C99.844867 40.967633 92.49925203 62.4462036 92.24487305 81.76635742 C92.26469668 95.23604306 93.36583437 106.28940885 98.00390625 118.96875 C103.07085881 133.18337431 104.50930703 150.29681541 98.1796875 164.41015625 C89.66350486 178.80844644 78.88480082 186.97574586 62.625 191.1875 C50.82724103 193.69826854 39.70688801 193.65519258 27.8125 192.0625 C26.61149658 191.9238855 26.61149658 191.9238855 25.38623047 191.7824707 C19.40811055 190.88245161 15.68991543 188.67570163 11.625 184.1875 C10.4710692 181.87963839 10.49691443 180.56879 10.49128723 178.00115967 C10.48488976 176.68481285 10.48488976 176.68481285 10.47836304 175.34187317 C10.47904282 173.89405708 10.47904282 173.89405708 10.47973633 172.41699219 C10.47637772 171.40221298 10.4730191 170.38743378 10.46955872 169.34190369 C10.46002665 165.97271514 10.4581043 162.6035762 10.45703125 159.234375 C10.45381961 156.89748107 10.45045561 154.56058735 10.44694519 152.22369385 C10.44094783 147.31758152 10.43910585 142.41148683 10.43969727 137.50537109 C10.43979878 131.21938869 10.42616045 124.93351952 10.40892506 118.64756393 C10.39780299 113.81770306 10.39577814 108.9878695 10.39630699 104.15799713 C10.39512665 101.84076803 10.39070188 99.52353823 10.38297462 97.20632172 C10.37317327 93.96266276 10.37605379 90.71924887 10.38208008 87.47558594 C10.37646057 86.51847214 10.37084106 85.56135834 10.36505127 84.57524109 C10.41781274 73.39468726 10.41781274 73.39468726 14.625 69.1875 C19.87473571 67.6003706 22.80466696 68.82280832 27.625 71.1875 C28.615 71.5175 29.605 71.8475 30.625 72.1875 C29.30971241 68.00380334 27.73596053 64.11712556 25.82421875 60.171875 C25.26516846 59.01461914 24.70611816 57.85736328 24.13012695 56.66503906 C23.52464318 55.42233503 22.91875858 54.17982622 22.3125 52.9375 C21.68902616 51.65593424 21.06557266 50.37435859 20.44213867 49.09277344 C19.15423516 46.44837874 17.86287043 43.80570692 16.56933594 41.1640625 C15.2881971 38.54702298 14.01281629 35.92731859 12.74316406 33.3046875 C10.98652498 29.67638489 9.21318161 26.05652277 7.4375 22.4375 C6.89762451 21.31956055 6.35774902 20.20162109 5.80151367 19.04980469 C5.04318237 17.51694824 5.04318237 17.51694824 4.26953125 15.953125 C3.82971924 15.05368164 3.38990723 14.15423828 2.93676758 13.22753906 C1.72343454 10.87202007 1.72343454 10.87202007 -1.375 10.1875 Z " fill="#D9B033" transform="translate(128.375,6.8125)"/>
</svg>
